<?xml version="1.0" encoding="UTF-8" standalone="no"?>
<!DOCTYPE svg PUBLIC "-//W3C//DTD SVG 1.1//EN" "http://www.w3.org/Graphics/SVG/1.1/DTD/svg11.dtd">
<svg xmlns="http://www.w3.org/2000/svg" version="1.1" viewBox="0.00 0.00 3078.00 901.00">
<g stroke-width="2.00" fill="none" stroke-linecap="butt">
<path stroke="#2c4d38" d="
  M 355.22 86.96
  Q 354.31 86.78 354.44 87.43"
/>
<path stroke="#2c4d38" d="
  M 352.24 88.40
  Q 349.21 88.89 347.92 90.69"
/>
<path stroke="#2c4d38" d="
  M 315.27 110.09
  Q 312.03 111.49 309.56 113.90"
/>
<path stroke="#2c4d38" d="
  M 308.43 114.55
  Q 297.70 121.69 288.70 130.87"
/>
<path stroke="#2c4d38" d="
  M 287.07 132.21
  Q 285.23 132.41 285.28 133.85"
/>
<path stroke="#2c4d38" d="
  M 285.28 133.85
  Q 284.98 133.63 284.50 133.98
  Q 275.93 140.23 269.14 148.16"
/>
<path stroke="#2c4d38" d="
  M 343.33 216.94
  Q 342.78 218.14 343.51 218.31"
/>
<path stroke="#2c4d38" d="
  M 293.76 206.26
  Q 292.69 206.27 292.69 206.94"
/>
<path stroke="#2c4d38" d="
  M 271.70 237.17
  Q 269.85 238.66 271.50 240.22"
/>
<path stroke="#2c4d38" d="
  M 121.29 476.48
  Q 120.25 476.03 118.53 476.48"
/>
<path stroke="#2c4d38" d="
  M 115.21 477.24
  Q 113.92 477.06 113.15 478.22"
/>
<path stroke="#2c4d38" d="
  M 113.15 478.22
  Q 111.88 478.35 111.18 479.10
  Q 105.69 485.00 107.27 491.66"
/>
<path stroke="#2c4d38" d="
  M 128.50 504.94
  Q 128.20 506.08 128.61 506.81"
/>
</g>
<path fill="#336e3b" d="
  M 355.22 86.96
  Q 354.31 86.78 354.44 87.43
  Q 353.24 88.22 352.24 88.40
  Q 349.21 88.89 347.92 90.69
  L 315.27 110.09
  Q 312.03 111.49 309.56 113.90
  Q 309.34 114.75 308.43 114.55
  Q 297.70 121.69 288.70 130.87
  Q 288.00 131.68 287.07 132.21
  Q 285.23 132.41 285.28 133.85
  Q 284.98 133.63 284.50 133.98
  Q 275.93 140.23 269.14 148.16
  Q 267.79 150.08 263.53 155.05
  Q 252.08 168.39 242.54 180.79
  Q 238.74 185.72 232.75 195.49
  Q 221.74 213.46 216.23 222.72
  Q 214.55 225.54 212.60 227.52
  A 5.60 5.39 -78.6 0 1 210.91 228.69
  Q 197.40 234.66 193.01 236.54
  Q 189.14 238.18 187.03 237.82
  C 182.42 237.01 176.97 234.05 174.38 230.35
  C 169.61 223.53 171.44 217.18 174.80 210.03
  Q 188.78 180.17 210.29 150.52
  Q 215.13 143.85 221.56 136.82
  Q 234.46 122.71 243.62 112.62
  C 248.99 106.71 255.64 100.71 263.35 94.72
  Q 286.46 76.75 290.47 73.97
  Q 304.72 64.10 317.84 57.37
  Q 330.12 51.08 342.45 44.70
  Q 348.93 41.34 354.75 39.26
  Q 375.43 31.86 383.84 28.90
  Q 388.80 27.16 394.11 25.68
  C 399.20 24.27 403.10 23.01 407.99 21.96
  Q 432.00 16.82 439.04 15.81
  Q 442.24 15.35 460.50 13.57
  Q 472.74 12.39 482.04 12.33
  Q 501.44 12.21 507.53 12.68
  C 516.89 13.41 533.95 14.79 547.29 17.35
  Q 566.57 21.04 585.13 26.28
  C 594.08 28.80 603.29 31.99 611.58 34.74
  Q 623.54 38.70 637.14 45.61
  Q 647.81 51.03 667.87 62.40
  Q 688.87 74.31 708.75 91.79
  C 713.63 96.08 719.99 100.85 725.57 106.47
  A 1.17 1.17 0.0 0 0 727.18 106.52
  Q 728.00 105.79 733.57 100.07
  Q 733.73 99.92 749.46 82.22
  C 752.72 78.55 755.78 76.55 760.69 76.83
  Q 768.82 77.30 771.37 85.30
  Q 772.91 90.11 773.95 95.94
  C 775.75 105.96 778.98 118.83 780.31 125.63
  C 780.93 128.80 781.78 134.33 782.76 138.75
  Q 784.65 147.30 786.67 158.43
  Q 789.77 175.47 791.95 185.55
  C 792.66 188.83 793.75 194.40 793.03 197.81
  C 791.20 206.47 784.21 208.15 776.59 206.51
  C 774.21 206.00 770.11 205.46 766.88 204.62
  C 757.15 202.08 745.80 200.18 737.03 197.99
  Q 727.63 195.63 722.43 194.69
  C 711.20 192.66 702.38 190.31 690.00 187.96
  Q 684.62 186.94 673.63 184.29
  Q 670.05 183.43 668.81 181.88
  C 667.05 179.67 664.86 175.34 666.42 172.44
  Q 668.51 168.57 670.95 166.19
  Q 672.51 164.66 696.50 139.48
  A 0.74 0.74 0.0 0 0 696.52 138.48
  Q 693.12 134.62 688.57 130.68
  Q 670.39 114.96 650.80 103.23
  Q 643.40 98.80 632.66 92.57
  Q 620.71 85.64 609.09 80.70
  C 603.82 78.46 594.23 74.97 586.60 72.71
  C 569.87 67.73 559.25 64.51 548.90 62.03
  C 542.78 60.57 537.62 60.38 530.62 59.31
  Q 523.50 58.23 516.84 58.04
  C 510.55 57.85 504.61 57.13 498.38 57.10
  Q 472.46 56.98 458.01 58.67
  C 445.99 60.08 436.47 60.83 427.05 62.90
  Q 409.08 66.83 403.80 68.34
  Q 394.62 70.97 384.91 74.95
  C 375.78 78.69 365.02 82.69 355.22 86.96
  Z"
/>
<path fill="#252c35" d="
  M 355.22 86.96
  Q 354.91 87.31 354.44 87.43
  Q 354.31 86.78 355.22 86.96
  Z"
/>
<path fill="#252c35" d="
  M 352.24 88.40
  L 347.92 90.69
  Q 349.21 88.89 352.24 88.40
  Z"
/>
<path fill="#252c35" d="
  M 315.27 110.09
  Q 312.75 112.49 309.56 113.90
  Q 312.03 111.49 315.27 110.09
  Z"
/>
<path fill="#252c35" d="
  M 308.43 114.55
  L 288.70 130.87
  Q 297.70 121.69 308.43 114.55
  Z"
/>
<path fill="#252c35" d="
  M 287.07 132.21
  L 285.28 133.85
  Q 285.23 132.41 287.07 132.21
  Z"
/>
<path fill="#252c35" d="
  M 285.28 133.85
  L 269.14 148.16
  Q 275.93 140.23 284.50 133.98
  Q 284.98 133.63 285.28 133.85
  Z"
/>
<path fill="#336e3b" d="
  M 343.33 216.94
  Q 342.78 218.14 343.51 218.31
  Q 344.62 232.04 343.32 238.76
  Q 342.78 241.55 341.53 247.79
  C 340.09 254.99 337.65 260.40 334.58 267.58
  A 1.96 1.94 -49.7 0 0 334.72 269.38
  C 336.81 272.71 340.31 276.00 341.78 278.74
  C 345.64 285.91 351.51 296.48 355.96 305.72
  Q 365.56 325.66 379.49 353.90
  Q 381.25 357.45 382.87 361.62
  C 384.21 365.03 386.04 368.48 386.93 372.06
  Q 389.32 381.66 388.56 390.00
  C 387.98 396.33 386.74 404.24 384.28 411.00
  C 382.55 415.73 381.63 420.02 379.83 425.02
  Q 376.78 433.48 375.15 439.07
  Q 373.52 444.67 372.69 446.90
  C 370.60 452.47 369.40 457.78 367.44 463.11
  C 366.01 467.02 365.04 471.14 363.92 474.37
  Q 359.65 486.66 354.09 504.36
  Q 351.64 512.17 349.37 518.81
  Q 346.68 526.67 344.58 533.23
  Q 343.01 538.12 336.97 557.47
  Q 335.00 563.80 332.21 571.91
  Q 329.53 579.72 327.45 586.36
  Q 322.51 602.16 313.67 629.63
  Q 309.30 643.21 304.86 657.31
  C 301.79 667.06 298.98 672.64 290.99 677.74
  C 281.58 683.74 269.46 686.42 259.18 683.57
  C 252.23 681.64 244.55 679.67 237.53 677.19
  C 232.96 675.58 228.67 674.75 223.95 673.06
  Q 219.84 671.60 208.58 668.15
  Q 190.01 662.45 149.90 649.34
  Q 141.96 646.75 135.59 644.93
  C 129.74 643.26 122.30 640.77 116.39 639.15
  Q 108.29 636.93 97.54 633.17
  Q 86.55 629.34 82.70 628.26
  C 77.19 626.71 70.00 624.01 62.79 622.04
  Q 59.75 621.20 48.83 617.84
  Q 39.63 615.01 35.30 612.55
  Q 13.62 600.24 14.86 572.67
  Q 14.92 571.31 16.83 561.56
  Q 18.06 555.27 19.75 550.66
  C 21.77 545.15 22.57 541.34 24.69 535.95
  C 29.48 523.78 33.99 507.14 38.13 495.25
  Q 39.01 492.72 44.60 475.16
  Q 51.58 453.19 56.84 437.16
  Q 62.85 418.88 66.83 405.97
  Q 68.90 399.29 71.56 391.65
  C 76.27 378.13 81.06 361.87 85.07 350.73
  C 86.93 345.54 87.71 341.76 89.65 336.66
  Q 90.10 335.45 91.49 331.04
  Q 94.59 321.16 99.72 305.84
  Q 102.16 298.58 104.23 295.31
  C 112.54 282.17 125.11 276.53 139.28 269.82
  Q 152.77 263.43 175.84 253.03
  C 190.69 246.35 202.32 241.97 217.17 236.89
  Q 225.40 234.08 234.25 233.50
  C 238.76 233.21 244.25 234.39 248.22 234.72
  A 1.90 1.89 13.2 0 0 250.13 233.54
  Q 251.85 229.27 254.88 222.13
  Q 257.27 216.49 262.87 208.64
  Q 273.36 193.94 289.39 185.97
  C 293.54 183.91 299.30 182.46 302.53 181.83
  C 307.47 180.86 312.15 181.74 317.80 183.41
  C 328.89 186.69 337.21 196.32 340.92 207.06
  Q 341.96 210.09 343.33 216.94
  Z
  M 293.76 206.26
  Q 292.69 206.27 292.69 206.94
  C 282.47 215.31 276.78 224.97 271.70 237.17
  Q 269.85 238.66 271.50 240.22
  Q 272.35 240.71 273.27 240.94
  Q 279.51 242.55 286.32 245.02
  C 290.24 246.45 294.68 247.30 298.07 248.71
  Q 302.27 250.44 301.07 255.32
  Q 300.08 259.31 299.15 260.90
  C 293.26 270.98 284.97 278.92 275.93 286.99
  A 1.75 1.75 0.0 0 0 275.58 289.17
  L 285.57 306.47
  A 2.81 2.80 55.3 0 1 284.92 310.05
  C 278.43 315.36 268.63 319.63 261.29 313.51
  Q 257.61 310.43 255.87 307.14
  C 250.54 297.04 255.39 290.01 264.99 286.43
  A 0.98 0.97 42.0 0 0 264.89 284.57
  C 254.26 281.85 241.07 286.04 233.38 293.92
  Q 223.41 304.12 224.97 319.11
  Q 226.47 333.56 237.91 342.99
  Q 244.50 348.43 254.28 349.77
  C 259.24 350.45 264.99 349.10 270.10 347.57
  C 279.45 344.78 285.87 338.56 288.96 329.44
  Q 290.44 325.05 290.58 323.78
  Q 291.35 316.48 291.64 308.19
  A 3.07 3.05 -16.2 0 1 292.97 305.79
  Q 314.01 291.50 328.05 270.29
  Q 329.67 267.83 329.21 265.54
  A 1.56 1.55 13.8 0 0 328.64 264.61
  Q 321.73 259.32 318.72 257.55
  C 316.97 256.54 316.60 255.42 317.48 253.39
  C 323.42 239.70 327.28 225.32 320.18 212.26
  C 314.07 201.03 304.12 200.57 293.76 206.26
  Z
  M 121.29 476.48
  Q 120.25 476.03 118.53 476.48
  L 115.21 477.24
  Q 113.92 477.06 113.15 478.22
  Q 111.88 478.35 111.18 479.10
  Q 105.69 485.00 107.27 491.66
  Q 108.85 495.22 110.11 496.39
  C 114.67 500.65 121.54 501.90 127.99 504.07
  A 0.67 0.57 71.2 0 1 128.21 504.20
  Q 128.67 504.63 128.50 504.94
  Q 128.20 506.08 128.61 506.81
  Q 128.55 525.37 133.95 541.34
  Q 140.56 560.93 157.52 574.96
  Q 167.64 583.34 182.63 589.39
  C 196.16 594.85 211.93 594.49 226.04 592.57
  C 229.13 592.15 232.17 591.10 236.05 590.06
  Q 237.84 589.58 240.81 587.65
  A 2.22 2.11 -2.3 0 0 241.47 586.97
  Q 241.85 586.34 242.40 583.48
  Q 243.68 576.85 243.34 572.31
  Q 242.85 565.76 241.38 563.19
  C 235.18 552.38 226.90 557.50 217.28 558.33
  C 204.81 559.41 189.74 554.68 180.43 546.19
  Q 168.44 535.27 166.56 518.33
  A 0.85 0.84 -3.0 0 1 167.41 517.39
  Q 170.40 517.40 173.52 518.51
  Q 180.85 521.14 202.04 527.95
  C 209.28 530.28 213.21 530.85 218.48 525.70
  C 220.46 523.77 221.67 519.64 222.30 517.24
  C 222.93 514.80 220.57 510.18 218.86 508.11
  Q 217.96 507.01 214.62 505.80
  Q 208.62 503.61 199.24 500.74
  Q 191.92 498.50 175.76 493.23
  Q 172.37 492.13 169.54 490.81
  A 1.49 1.48 -68.3 0 1 168.77 489.00
  L 172.60 477.36
  A 2.20 2.19 15.8 0 1 175.20 475.92
  Q 178.99 476.85 181.78 477.97
  Q 187.57 480.27 197.51 483.54
  C 205.22 486.07 210.44 488.05 217.22 489.67
  Q 224.29 491.35 228.03 490.21
  Q 233.08 488.67 236.06 482.98
  Q 238.52 478.28 235.41 472.45
  Q 233.16 468.23 228.17 466.58
  Q 205.27 459.01 205.14 458.96
  Q 194.20 455.24 190.08 453.88
  Q 189.11 453.56 188.47 453.09
  A 0.99 0.99 0.0 0 1 188.34 451.63
  Q 203.95 434.83 225.74 437.05
  C 234.58 437.95 242.03 441.39 248.52 446.70
  Q 248.63 446.79 257.36 454.84
  C 262.80 459.85 270.92 457.31 276.06 453.05
  Q 281.01 448.94 284.37 443.18
  C 286.00 440.39 286.33 438.09 285.27 435.20
  Q 282.64 427.96 276.67 422.54
  Q 270.61 417.05 268.46 415.52
  Q 262.37 411.19 252.86 406.66
  Q 243.90 402.39 235.97 400.65
  C 218.61 396.83 201.19 399.51 185.06 407.74
  Q 162.96 419.02 148.95 440.51
  A 1.74 1.74 0.0 0 1 146.88 441.19
  C 140.71 438.87 133.64 436.07 127.83 439.66
  Q 124.50 441.71 122.17 444.89
  C 119.47 448.56 119.34 456.52 123.54 459.26
  C 127.58 461.89 130.37 462.65 136.15 464.47
  A 1.12 1.11 17.8 0 1 136.88 465.88
  L 132.80 478.27
  A 1.58 1.57 -72.6 0 1 130.86 479.29
  L 121.29 476.48
  Z"
/>
<circle fill="#f59916" cx="2339.46" cy="242.27" r="52.94"/>
<path fill="#f59916" d="
  M 625.00 271.09
  A 0.32 0.31 -32.5 0 1 624.53 270.99
  Q 617.88 258.33 614.96 244.16
  Q 612.68 233.13 615.53 220.75
  C 619.67 202.75 631.49 190.60 650.75 190.37
  C 668.31 190.15 682.38 201.99 692.28 215.48
  Q 699.59 225.46 706.50 237.90
  A 1.44 1.44 0.0 0 0 708.32 238.52
  C 711.31 237.25 713.34 237.21 717.29 236.84
  Q 727.74 235.84 739.45 239.78
  Q 747.94 242.64 751.78 244.49
  Q 807.88 271.51 824.21 279.27
  Q 835.22 284.50 839.46 288.06
  C 847.05 294.43 853.81 303.04 856.87 312.71
  C 858.16 316.81 859.81 320.96 861.13 326.15
  Q 863.89 337.04 866.96 347.42
  Q 868.15 351.44 869.31 355.53
  Q 873.60 370.69 877.67 385.89
  C 880.32 395.75 883.29 404.76 885.21 412.45
  Q 887.12 420.13 888.20 423.30
  C 889.89 428.26 890.56 432.62 892.17 437.78
  Q 893.22 441.15 895.97 451.13
  Q 904.44 481.79 912.83 511.72
  Q 918.49 531.90 924.28 552.10
  Q 929.57 570.57 930.08 572.68
  Q 931.62 579.19 933.09 589.15
  Q 933.67 593.06 933.21 595.50
  C 930.34 610.90 921.18 624.01 906.04 628.74
  Q 895.32 632.10 885.63 634.40
  C 879.90 635.77 874.27 637.71 869.70 638.70
  C 862.18 640.34 853.34 643.27 846.41 645.09
  Q 831.82 648.92 816.40 653.55
  C 808.16 656.02 802.10 657.47 792.94 660.27
  Q 787.56 661.91 779.77 663.78
  C 773.12 665.37 768.70 666.88 762.15 668.34
  Q 756.21 669.67 745.59 672.92
  C 739.61 674.75 734.33 675.83 728.88 677.68
  Q 724.14 679.29 718.26 680.72
  C 713.93 681.77 709.35 683.50 704.07 684.82
  C 690.50 688.21 674.97 693.15 662.01 687.75
  Q 647.72 681.79 642.55 667.70
  Q 639.17 658.51 637.94 654.32
  Q 632.65 636.33 625.39 609.69
  Q 622.52 599.14 621.69 596.63
  C 619.60 590.33 618.69 585.59 616.59 579.20
  Q 613.81 570.78 611.06 560.16
  Q 610.98 559.87 604.82 537.26
  Q 602.14 527.40 598.28 514.45
  Q 588.71 482.34 583.93 464.96
  C 581.66 456.72 579.14 448.20 577.40 441.29
  Q 576.26 436.75 570.56 416.93
  Q 565.86 400.58 565.73 394.81
  Q 565.46 382.88 569.21 372.46
  Q 573.28 361.12 579.54 350.03
  Q 596.03 320.79 611.66 289.96
  C 614.29 284.77 617.14 281.14 620.77 277.25
  Q 623.95 273.86 624.83 272.27
  A 0.38 0.38 0.0 0 1 625.47 272.24
  Q 633.64 283.80 637.93 288.54
  Q 647.31 298.91 661.39 308.82
  C 662.78 309.80 664.45 310.18 665.40 311.66
  A 1.77 1.75 -61.9 0 1 665.69 312.63
  C 665.66 321.18 666.04 327.35 668.78 335.01
  C 671.58 342.83 678.15 348.41 685.62 350.85
  C 690.03 352.28 695.47 353.64 700.56 353.31
  C 707.60 352.86 714.57 350.65 720.31 346.17
  C 725.94 341.78 730.39 333.40 732.02 327.30
  C 733.74 320.87 733.08 313.26 730.07 306.67
  C 721.47 287.83 699.69 281.70 681.83 291.38
  A 1.64 1.63 -40.3 0 1 680.05 291.24
  Q 667.41 281.59 656.83 269.47
  C 651.81 263.73 653.49 257.40 658.62 252.70
  A 3.61 3.59 14.8 0 1 659.95 251.93
  L 683.58 244.54
  A 1.20 1.20 0.0 0 0 684.23 242.75
  C 683.03 240.87 682.60 238.87 681.49 236.44
  C 676.13 224.68 662.42 208.78 648.00 210.20
  C 642.27 210.76 638.09 216.22 636.78 221.49
  Q 634.42 230.90 636.21 242.21
  C 637.11 247.90 640.40 252.53 641.95 257.16
  A 1.11 1.10 62.2 0 1 641.57 258.40
  L 625.00 271.09
  Z
  M 765.17 427.12
  A 1.31 1.30 -11.7 0 1 764.42 428.25
  C 760.20 430.22 754.48 431.07 749.67 432.79
  Q 735.76 437.77 719.22 441.66
  Q 705.59 444.87 683.65 451.23
  Q 674.95 453.75 667.16 455.97
  Q 657.77 458.66 653.41 460.94
  C 647.13 464.23 646.68 470.11 647.58 476.68
  Q 648.45 483.01 653.57 486.20
  C 658.52 489.29 661.78 489.18 667.07 487.43
  C 674.51 484.95 681.04 483.46 689.78 480.93
  Q 714.03 473.89 717.22 473.03
  Q 740.20 466.79 755.97 462.01
  C 762.46 460.05 764.70 459.69 771.51 457.79
  Q 773.67 457.19 774.20 459.30
  Q 775.15 463.02 779.01 479.72
  Q 781.20 489.16 790.97 489.47
  Q 795.12 489.61 797.24 486.50
  Q 812.71 463.72 830.11 435.60
  C 832.88 431.12 835.61 424.32 830.15 420.88
  Q 825.23 417.78 820.10 415.17
  Q 807.37 408.72 777.15 393.32
  Q 772.33 390.86 766.95 392.06
  C 762.90 392.96 758.82 398.35 759.93 402.80
  Q 764.15 419.66 765.17 426.12
  Q 765.21 426.35 765.17 427.12
  Z
  M 738.00 566.91
  Q 740.01 565.50 742.69 564.91
  C 751.83 562.91 765.91 559.19 779.75 555.04
  Q 784.73 553.54 797.32 550.27
  Q 818.29 544.81 832.49 540.48
  Q 837.04 539.09 845.00 536.01
  C 850.35 533.95 853.01 531.19 854.50 525.99
  C 855.76 521.55 852.74 515.50 849.43 512.83
  C 846.56 510.50 841.50 508.06 837.51 508.79
  C 832.35 509.72 826.15 512.25 820.85 513.29
  C 815.81 514.28 811.08 516.11 805.16 517.60
  Q 793.44 520.54 781.86 523.99
  Q 781.26 524.17 775.26 525.82
  Q 753.79 531.74 731.19 537.79
  A 1.97 1.97 0.0 0 1 728.72 536.13
  Q 727.77 528.57 727.46 527.04
  C 726.56 522.63 724.43 513.40 720.55 510.11
  C 718.69 508.53 714.46 506.26 711.62 507.39
  C 707.00 509.22 703.99 512.78 700.80 517.30
  Q 700.24 518.10 687.39 538.16
  Q 680.13 549.50 672.44 559.35
  C 668.20 564.78 667.45 572.30 674.27 576.26
  Q 677.11 577.91 694.57 586.65
  Q 708.61 593.69 721.00 599.57
  Q 727.34 602.59 727.40 602.62
  C 732.58 605.20 736.77 605.41 741.46 601.46
  Q 746.82 596.96 744.53 590.24
  Q 740.89 579.54 737.62 567.98
  A 0.98 0.98 0.0 0 1 738.00 566.91
  Z"
/>
<path fill="#252c35" d="
  M 293.76 206.26
  L 292.69 206.94
  Q 292.69 206.27 293.76 206.26
  Z"
/>
<path fill="#252c35" d="
  M 343.51 218.31
  Q 342.78 218.14 343.33 216.94
  L 343.51 218.31
  Z"
/>
<path fill="#252c35" d="
  M 1320.83 435.36
  Q 1338.80 445.23 1352.39 460.81
  Q 1367.62 478.27 1374.80 502.98
  Q 1376.19 507.77 1376.86 512.58
  C 1377.57 517.61 1378.57 521.09 1378.77 525.51
  Q 1379.32 537.30 1378.85 548.34
  C 1378.58 554.64 1377.33 559.88 1376.41 566.86
  C 1375.66 572.59 1373.41 579.08 1371.88 584.34
  Q 1370.72 588.32 1369.50 591.17
  Q 1360.10 613.29 1346.08 628.44
  Q 1321.05 655.48 1286.01 666.55
  Q 1271.83 671.03 1254.74 672.40
  Q 1251.38 672.67 1237.09 673.00
  Q 1229.69 673.17 1219.42 673.13
  Q 1161.41 672.91 1093.50 672.94
  C 1090.18 672.95 1086.57 672.59 1083.21 671.63
  Q 1063.68 666.08 1055.39 646.88
  Q 1053.13 641.63 1052.92 638.02
  C 1052.60 632.67 1052.32 625.65 1052.33 619.99
  Q 1052.77 434.99 1052.25 287.00
  Q 1052.24 283.50 1052.71 275.26
  Q 1053.15 267.62 1054.39 263.66
  C 1058.78 249.62 1069.31 238.08 1084.10 234.64
  C 1089.05 233.48 1095.56 232.61 1102.01 232.61
  Q 1187.25 232.52 1215.96 232.55
  C 1229.51 232.57 1240.57 233.56 1252.25 234.76
  C 1259.08 235.47 1264.71 237.42 1272.13 239.90
  C 1302.51 250.09 1327.41 270.11 1341.18 298.28
  Q 1346.53 309.23 1350.83 324.58
  C 1355.11 339.86 1355.78 357.51 1353.45 372.26
  Q 1351.55 384.30 1345.77 397.83
  Q 1337.07 418.21 1320.59 433.38
  A 1.23 1.23 0.0 0 0 1320.83 435.36
  Z
  M 1135.36 324.11
  L 1135.24 390.81
  A 12.15 12.15 0.0 0 0 1147.37 402.98
  L 1226.52 403.12
  A 47.98 44.65 0.1 0 0 1274.58 358.55
  L 1274.58 356.85
  A 47.98 44.65 0.1 0 0 1226.68 312.12
  L 1147.53 311.98
  A 12.15 12.15 0.0 0 0 1135.36 324.11
  Z
  M 1135.06 495.19
  L 1135.50 580.21
  A 13.39 13.39 0.0 0 0 1148.96 593.53
  L 1240.79 593.05
  A 57.82 54.61 -0.3 0 0 1298.33 538.13
  L 1298.31 535.55
  A 57.82 54.61 -0.3 0 0 1240.21 481.25
  L 1148.38 481.73
  A 13.39 13.39 0.0 0 0 1135.06 495.19
  Z"
/>
<path fill="#252c35" d="
  M 2220.13 590.65
  Q 2221.52 590.67 2227.56 592.75
  Q 2231.30 594.04 2234.41 596.17
  C 2249.26 606.35 2256.69 621.89 2253.55 639.92
  Q 2251.83 649.77 2245.38 657.95
  Q 2232.96 673.71 2210.21 673.79
  C 2198.49 673.83 2186.35 671.29 2174.33 667.14
  C 2150.72 659.00 2131.09 639.86 2120.64 616.97
  Q 2112.40 598.94 2111.18 581.00
  C 2110.71 574.20 2110.25 568.50 2110.24 560.98
  Q 2110.10 320.34 2110.17 280.57
  Q 2110.18 273.76 2111.26 265.01
  Q 2111.88 260.06 2113.82 256.37
  Q 2124.10 236.92 2145.17 233.34
  Q 2151.70 232.24 2157.84 233.24
  Q 2165.33 234.47 2170.09 236.64
  C 2183.09 242.55 2192.64 253.61 2193.73 268.24
  Q 2194.42 277.44 2194.40 288.00
  Q 2194.12 470.52 2194.35 561.00
  Q 2194.37 568.85 2197.36 577.81
  Q 2199.06 582.91 2201.90 585.33
  C 2206.39 589.17 2214.42 590.56 2220.13 590.65
  Z"
/>
<path fill="#252c35" d="
  M 271.70 237.17
  Q 271.21 238.73 271.50 240.22
  Q 269.85 238.66 271.70 237.17
  Z"
/>
<path fill="#252c35" d="
  M 2869.24 469.84
  Q 2869.85 469.59 2870.63 468.88
  Q 2934.90 409.95 2967.64 378.64
  C 2970.76 375.65 2978.35 368.01 2983.33 365.06
  Q 2990.71 360.71 2998.59 358.91
  C 3015.23 355.11 3032.91 362.17 3042.85 375.98
  Q 3049.57 385.33 3050.35 397.18
  Q 3051.35 412.39 3041.87 426.08
  Q 3040.72 427.73 3035.63 432.70
  Q 3032.33 435.92 3028.97 438.88
  Q 2993.02 470.45 2957.17 503.93
  A 2.14 2.14 0.0 0 0 2956.90 506.77
  Q 2958.43 508.88 2960.22 510.78
  Q 3005.82 559.19 3059.54 614.46
  C 3067.06 622.19 3069.26 633.68 3068.12 644.13
  Q 3067.25 652.19 3065.42 657.39
  Q 3060.16 672.29 3047.58 678.76
  Q 3040.11 682.61 3028.93 683.86
  Q 3014.61 685.47 3002.71 678.38
  Q 2997.91 675.52 2989.95 667.17
  Q 2929.70 603.93 2894.53 566.39
  Q 2892.62 564.35 2891.29 563.35
  A 1.88 1.87 42.0 0 0 2888.90 563.47
  L 2868.61 582.20
  A 2.84 2.80 -21.9 0 0 2867.70 584.29
  Q 2867.76 603.76 2867.62 632.62
  Q 2867.59 638.28 2865.33 644.84
  Q 2858.34 665.13 2839.03 671.48
  Q 2823.17 676.70 2807.03 669.46
  Q 2789.18 661.46 2784.39 642.39
  Q 2783.76 639.90 2783.32 633.15
  Q 2783.02 628.58 2783.03 623.85
  Q 2783.21 501.65 2783.08 282.25
  C 2783.08 277.84 2783.73 273.13 2785.66 268.96
  C 2789.46 260.75 2795.38 253.03 2803.17 248.71
  C 2809.56 245.17 2820.47 241.87 2827.25 242.52
  Q 2853.08 244.97 2863.32 267.42
  Q 2865.92 273.11 2867.06 280.00
  Q 2867.80 284.42 2867.77 293.08
  Q 2867.51 397.45 2867.77 456.25
  Q 2867.80 463.62 2867.95 469.01
  A 0.93 0.93 0.0 0 0 2869.24 469.84
  Z"
/>
<path fill="#f59916" d="
  M 681.19 292.91
  Q 681.21 292.91 681.50 292.91
  A 0.24 0.17 54.2 0 1 681.62 292.95
  C 685.38 295.50 690.31 296.74 694.56 297.72
  C 700.35 299.04 704.74 305.76 702.31 311.55
  C 698.96 319.51 692.07 324.04 683.28 321.98
  Q 681.44 321.55 678.10 319.17
  C 674.86 316.86 670.86 314.77 668.23 311.68
  A 1.30 1.28 42.8 0 1 668.16 310.10
  L 680.20 293.40
  A 1.17 1.16 18.3 0 1 681.19 292.91
  Z"
/>
<path fill="#252c35" d="
  M 2664.57 653.37
  A 1.94 1.94 0.0 0 0 2661.78 652.91
  Q 2653.64 659.13 2645.48 663.28
  C 2633.90 669.17 2620.84 672.18 2607.01 674.52
  Q 2604.22 674.99 2590.36 675.95
  Q 2581.02 676.59 2573.64 676.23
  Q 2557.24 675.44 2550.08 674.12
  Q 2543.64 672.94 2532.57 669.75
  Q 2523.44 667.11 2515.62 663.66
  Q 2469.67 643.33 2444.55 600.26
  Q 2433.41 581.16 2426.98 557.54
  Q 2423.99 546.54 2422.76 534.71
  Q 2421.41 521.68 2421.68 511.51
  Q 2421.78 507.83 2423.11 495.43
  Q 2423.97 487.41 2426.05 479.59
  Q 2432.22 456.37 2443.00 437.00
  Q 2461.46 403.83 2493.75 382.26
  C 2498.89 378.83 2506.24 374.32 2512.24 371.54
  Q 2536.62 360.26 2561.78 356.92
  C 2579.36 354.58 2599.55 355.24 2617.54 359.66
  Q 2640.83 365.37 2657.35 374.41
  Q 2706.91 401.52 2729.57 452.67
  Q 2738.64 473.14 2741.73 496.51
  Q 2742.25 500.40 2742.84 516.66
  Q 2743.38 531.54 2742.95 536.84
  Q 2742.81 538.60 2743.00 620.50
  Q 2743.02 630.93 2742.04 639.26
  C 2740.45 652.79 2730.61 664.68 2718.27 670.01
  C 2711.54 672.92 2702.41 675.35 2694.93 674.08
  Q 2679.77 671.51 2669.23 660.32
  A 0.13 0.03 39.0 0 1 2669.19 660.27
  L 2664.57 653.37
  Z
  M 2597.4455 439.4636
  A 78.75 77.89 -78.6 0 0 2505.5267 501.2645
  A 78.75 77.89 -78.6 0 0 2566.3145 593.8564
  A 78.75 77.89 -78.6 0 0 2658.2333 532.0555
  A 78.75 77.89 -78.6 0 0 2597.4455 439.4636
  Z"
/>
<path fill="#252c35" d="
  M 2295.56 656.17
  C 2295.63 571.60 2295.66 486.43 2295.52 403.50
  Q 2295.52 402.58 2296.66 391.98
  Q 2297.42 384.88 2299.42 380.83
  Q 2303.00 373.60 2306.48 370.21
  Q 2318.28 358.72 2333.23 356.64
  Q 2349.42 354.39 2362.60 362.37
  Q 2376.60 370.85 2381.69 387.77
  Q 2382.75 391.29 2383.42 398.55
  Q 2383.79 402.56 2383.80 409.46
  Q 2383.89 609.02 2383.87 665.77
  C 2383.86 683.58 2382.24 700.52 2378.39 717.51
  C 2374.17 736.07 2366.21 753.83 2355.64 769.17
  Q 2324.67 814.10 2270.58 830.07
  Q 2266.36 831.31 2254.56 834.01
  Q 2243.69 836.49 2227.75 837.40
  Q 2216.36 838.05 2207.00 834.33
  Q 2190.11 827.62 2182.94 811.10
  Q 2179.85 804.00 2179.53 793.25
  Q 2179.48 791.67 2180.92 784.80
  Q 2181.96 779.80 2183.31 776.62
  Q 2190.45 759.74 2208.07 753.32
  C 2215.87 750.48 2220.11 750.94 2229.66 750.10
  Q 2236.72 749.48 2241.20 748.14
  Q 2256.37 743.62 2267.46 735.96
  Q 2281.75 726.07 2288.85 708.65
  Q 2293.23 697.90 2294.96 682.80
  Q 2295.54 677.75 2295.56 656.17
  Z"
/>
<path fill="#252c35" d="
  M 1908.73 546.71
  A 0.99 0.99 0.0 0 0 1910.52 546.68
  Q 1911.72 544.05 1912.67 541.99
  Q 1920.77 524.32 1927.19 511.19
  Q 1927.40 510.76 1928.25 508.91
  Q 1980.67 394.79 1984.23 386.86
  C 1987.41 379.79 1991.20 372.85 1997.14 368.14
  C 2004.85 362.02 2015.16 357.80 2024.94 358.26
  Q 2037.72 358.87 2048.53 366.48
  C 2062.75 376.49 2069.75 394.59 2064.19 411.33
  Q 2062.27 417.08 2058.42 424.96
  Q 2053.25 435.55 2053.23 435.66
  Q 2053.01 437.11 1953.62 645.09
  Q 1945.79 661.47 1931.01 668.58
  Q 1919.66 674.03 1906.90 673.25
  C 1894.59 672.49 1881.38 666.87 1873.44 656.79
  C 1866.90 648.49 1862.72 640.72 1858.40 631.11
  Q 1846.81 605.33 1834.35 580.02
  C 1820.94 552.75 1810.20 529.76 1797.62 502.88
  Q 1793.85 494.82 1765.76 436.05
  Q 1762.68 429.60 1761.07 426.46
  C 1758.61 421.67 1756.62 416.49 1754.41 411.57
  C 1751.94 406.11 1752.48 396.66 1753.33 391.36
  Q 1754.08 386.72 1756.53 381.79
  Q 1764.18 366.42 1780.95 360.64
  Q 1792.09 356.79 1802.00 358.96
  Q 1813.93 361.57 1822.82 369.37
  C 1828.23 374.12 1831.39 379.90 1834.50 386.74
  C 1854.05 429.63 1870.20 463.86 1899.99 527.51
  C 1903.09 534.14 1905.58 540.49 1908.73 546.71
  Z"
/>
<path fill="#252c35" d="
  M 1565.82 593.44
  Q 1573.59 593.44 1579.25 592.51
  C 1598.89 589.27 1615.55 577.70 1624.13 559.65
  C 1630.26 546.75 1629.83 531.95 1629.81 517.92
  Q 1629.75 452.62 1629.87 398.25
  C 1629.88 391.40 1632.79 384.17 1636.43 378.74
  C 1643.56 368.11 1652.95 362.27 1665.77 359.52
  C 1674.70 357.61 1685.78 360.52 1693.00 364.60
  C 1702.94 370.21 1710.64 380.21 1713.18 391.44
  Q 1713.98 394.98 1714.05 404.14
  Q 1714.55 469.52 1713.91 530.77
  C 1713.79 541.73 1713.65 551.78 1712.27 561.87
  Q 1711.77 565.56 1710.28 571.04
  Q 1706.62 584.51 1699.95 598.97
  Q 1694.15 611.55 1686.50 622.15
  Q 1679.45 631.93 1668.07 641.50
  Q 1648.61 657.88 1624.76 666.98
  Q 1619.85 668.86 1607.19 672.21
  Q 1598.27 674.58 1589.15 675.34
  Q 1574.34 676.57 1565.80 676.57
  Q 1557.26 676.57 1542.45 675.33
  Q 1533.33 674.57 1524.41 672.19
  Q 1511.75 668.84 1506.84 666.96
  Q 1483.00 657.85 1463.54 641.46
  Q 1452.17 631.89 1445.12 622.10
  Q 1437.48 611.50 1431.68 598.92
  Q 1425.02 584.46 1421.36 570.99
  Q 1419.87 565.51 1419.37 561.81
  C 1418.00 551.72 1417.86 541.67 1417.75 530.71
  Q 1417.13 469.46 1417.65 404.08
  Q 1417.73 394.92 1418.53 391.38
  C 1421.07 380.16 1428.78 370.16 1438.72 364.55
  C 1445.94 360.47 1457.02 357.57 1465.95 359.48
  C 1478.77 362.24 1488.16 368.08 1495.28 378.71
  C 1498.92 384.14 1501.83 391.38 1501.84 398.23
  Q 1501.94 452.60 1501.85 517.90
  C 1501.83 531.93 1501.39 546.73 1507.51 559.63
  C 1516.09 577.68 1532.74 589.26 1552.38 592.50
  Q 1558.04 593.44 1565.82 593.44
  Z"
/>
<path fill="#252c35" d="
  M 121.29 476.48
  L 118.53 476.48
  Q 120.25 476.03 121.29 476.48
  Z"
/>
<path fill="#252c35" d="
  M 115.21 477.24
  Q 114.25 477.94 113.15 478.22
  Q 113.92 477.06 115.21 477.24
  Z"
/>
<path fill="#252c35" d="
  M 113.15 478.22
  Q 107.08 483.28 107.27 491.66
  Q 105.69 485.00 111.18 479.10
  Q 111.88 478.35 113.15 478.22
  Z"
/>
<path fill="#252c35" d="
  M 128.61 506.81
  Q 128.20 506.08 128.50 504.94
  Q 128.85 505.68 128.61 506.81
  Z"
/>
<path fill="#f59916" d="
  M 291.71 770.55
  C 303.85 783.00 321.62 793.57 337.88 803.19
  Q 344.64 807.20 352.99 811.27
  Q 388.54 828.65 427.82 836.57
  Q 433.16 837.65 450.33 839.96
  Q 463.06 841.67 472.95 842.06
  Q 500.75 843.15 521.74 841.38
  Q 526.41 840.99 544.58 838.18
  Q 556.40 836.36 567.14 833.42
  Q 587.95 827.72 597.29 824.26
  C 621.02 815.47 642.29 806.06 663.87 790.86
  Q 667.74 788.13 682.74 777.75
  Q 688.24 773.94 697.97 764.96
  Q 728.38 736.91 750.11 704.39
  Q 754.54 697.77 757.26 693.83
  A 5.38 5.30 2.0 0 1 758.98 692.25
  Q 761.21 690.97 763.51 690.22
  Q 784.37 683.44 792.50 681.00
  C 800.97 678.46 806.91 686.77 805.55 694.31
  Q 804.79 698.54 802.81 701.85
  C 793.47 717.47 783.21 734.49 771.43 749.72
  C 734.96 796.83 685.80 835.04 630.96 858.19
  Q 626.03 860.27 609.03 866.39
  C 591.21 872.81 573.20 877.20 554.24 880.96
  Q 544.49 882.89 538.66 883.45
  C 531.47 884.14 524.89 885.08 517.76 885.60
  Q 496.84 887.12 486.50 886.66
  C 471.19 885.96 464.20 886.11 452.31 884.40
  C 446.63 883.58 437.67 883.03 430.28 881.57
  Q 412.87 878.13 399.31 874.95
  Q 397.70 874.57 385.88 871.12
  C 375.76 868.17 364.96 863.35 355.76 860.03
  C 347.02 856.87 339.10 853.74 330.60 848.74
  C 317.86 841.25 301.58 832.43 288.85 823.19
  Q 274.95 813.11 262.61 802.05
  A 1.30 1.29 42.9 0 0 260.82 802.11
  Q 254.17 809.01 250.91 812.41
  Q 243.89 819.71 235.97 829.97
  C 231.91 835.23 224.60 837.39 219.16 833.09
  C 215.17 829.94 213.97 826.44 213.21 821.08
  C 211.91 811.88 209.40 801.81 207.89 791.63
  C 206.75 783.93 204.55 775.74 203.40 768.85
  C 201.90 759.82 200.62 754.68 198.23 743.49
  C 196.28 734.41 195.84 726.30 193.87 717.74
  Q 192.27 710.75 196.26 705.15
  A 2.20 2.19 2.0 0 1 196.97 704.49
  Q 201.48 701.78 206.01 702.48
  Q 218.26 704.38 230.09 706.85
  C 239.19 708.74 249.24 709.70 258.01 711.76
  C 266.17 713.69 270.53 714.41 276.64 716.25
  Q 287.57 719.54 304.58 721.62
  C 308.16 722.06 318.10 725.06 320.25 729.59
  C 322.92 735.18 321.04 739.95 316.70 744.20
  C 303.64 756.99 297.94 762.15 291.67 769.49
  A 0.79 0.79 0.0 0 0 291.71 770.55
  Z"
/>
</svg>
