<?xml version="1.0" encoding="UTF-8" standalone="no"?>
<!DOCTYPE svg PUBLIC "-//W3C//DTD SVG 1.1//EN" "http://www.w3.org/Graphics/SVG/1.1/DTD/svg11.dtd">
<svg xmlns="http://www.w3.org/2000/svg" version="1.1" viewBox="0.00 0.00 1254.00 1254.00">
<g stroke-width="2.00" fill="none" stroke-linecap="butt">
<path stroke="#2e523a" d="
  M 254.85 1030.97
  L 255.07 1036.26"
/>
<path stroke="#2e523a" d="
  M 253.34 1041.22
  Q 252.99 1041.10 253.03 1041.98"
/>
<path stroke="#2e523a" d="
  M 541.11 356.54
  Q 541.20 356.06 541.08 355.46"
/>
<path stroke="#2e523a" d="
  M 238.08 1016.76
  L 237.73 1017.79"
/>
<path stroke="#2e523a" d="
  M 235.47 1024.67
  Q 236.03 1024.72 236.46 1024.52"
/>
<path stroke="#2e523a" d="
  M 214.23 1042.06
  L 212.55 1042.27"
/>
<path stroke="#2e523a" d="
  M 210.96 1045.89
  Q 211.34 1046.74 211.37 1047.20"
/>
</g>
<path fill="#32743c" d="
  M 744.71 281.45
  Q 736.67 275.11 722.80 267.02
  C 691.60 248.80 653.84 238.71 617.98 241.37
  Q 592.96 243.23 569.29 252.46
  C 538.03 264.65 511.53 285.30 489.85 311.36
  Q 485.58 316.50 476.69 327.93
  Q 475.01 330.09 470.15 330.84
  Q 462.91 331.95 459.79 325.98
  Q 457.36 321.34 460.05 316.29
  Q 472.07 293.77 491.54 274.33
  Q 525.16 240.77 569.97 225.75
  C 635.79 203.70 706.30 221.67 759.86 263.83
  A 0.94 0.93 -49.4 0 0 761.13 263.73
  Q 768.70 255.48 773.24 249.73
  Q 775.98 246.25 777.86 245.47
  C 781.88 243.79 786.25 245.07 788.58 248.70
  Q 789.50 250.12 790.25 254.12
  Q 795.39 281.29 800.54 308.74
  C 801.47 313.66 798.61 318.50 793.85 319.63
  Q 791.94 320.09 787.70 319.20
  Q 767.18 314.91 742.56 310.68
  C 737.84 309.86 730.90 310.71 729.11 303.82
  Q 727.96 299.39 731.85 295.59
  Q 735.44 292.08 744.77 282.33
  A 0.60 0.59 -49.3 0 0 744.71 281.45
  Z"
/>
<path fill="#32743c" d="
  M 504.73 340.64
  A 0.60 0.59 -75.3 0 0 505.37 340.26
  Q 508.87 331.05 514.94 323.49
  C 528.66 306.44 556.21 311.46 560.97 333.64
  C 563.65 346.12 557.59 356.39 551.71 366.72
  A 1.88 1.87 47.5 0 0 551.64 368.44
  Q 568.71 404.95 575.14 419.30
  Q 578.15 426.02 577.68 433.54
  Q 577.37 438.42 574.06 447.63
  Q 553.26 505.59 549.18 516.94
  Q 532.56 563.20 527.13 579.26
  Q 524.02 588.45 521.39 591.37
  Q 515.17 598.26 506.27 599.36
  Q 501.00 600.02 497.07 598.65
  Q 483.42 593.90 380.72 557.67
  Q 372.71 554.85 370.41 552.97
  C 364.62 548.25 361.43 541.91 361.48 533.90
  Q 361.50 530.16 363.79 524.21
  Q 363.97 523.76 409.25 392.01
  C 411.07 386.73 412.73 379.74 415.14 375.60
  Q 420.52 366.33 430.03 362.79
  Q 460.35 351.50 482.27 343.03
  Q 488.44 340.65 494.68 339.40
  A 2.60 2.52 42.1 0 1 495.55 339.37
  L 504.73 340.64
  Z
  M 541.11 356.54
  Q 541.20 356.06 541.08 355.46
  C 544.85 348.26 548.58 342.41 546.27 334.98
  C 543.83 327.15 535.80 325.44 529.16 329.47
  C 523.96 332.62 520.27 339.77 518.43 345.41
  A 0.76 0.76 0.0 0 0 518.95 346.38
  Q 524.16 347.82 526.65 348.82
  Q 530.31 350.29 528.88 353.65
  C 526.47 359.36 522.78 364.17 518.14 370.93
  A 1.61 1.61 0.0 0 0 518.23 372.88
  L 523.77 379.52
  A 1.16 1.16 0.0 0 1 523.40 381.30
  C 517.28 384.41 509.65 383.60 505.90 377.67
  Q 503.41 373.71 505.68 368.55
  A 0.49 0.49 0.0 0 0 505.18 367.87
  C 496.20 368.76 489.96 374.85 489.66 383.89
  C 489.12 399.41 507.19 408.81 519.61 399.57
  C 525.34 395.32 527.77 388.25 525.72 381.42
  A 0.65 0.64 -22.5 0 1 526.04 380.66
  C 532.85 377.19 542.01 364.69 541.11 356.54
  Z
  M 448.67 503.37
  Q 458.28 506.61 466.80 509.80
  Q 471.19 511.45 472.82 511.03
  C 477.48 509.84 479.54 504.89 477.15 500.62
  Q 476.05 498.67 471.58 497.33
  Q 469.89 496.83 450.58 489.94
  A 1.22 1.21 19.8 0 1 449.84 488.38
  L 452.26 481.71
  A 1.24 1.23 20.0 0 1 453.84 480.98
  Q 465.13 485.04 477.31 489.20
  C 483.36 491.26 488.54 486.09 485.85 480.08
  Q 484.71 477.55 483.03 476.89
  Q 471.87 472.53 461.09 469.02
  A 0.78 0.78 0.0 0 1 460.76 467.75
  C 469.36 458.53 481.94 457.25 492.81 463.98
  C 495.16 465.44 496.90 468.00 498.96 469.76
  C 503.55 473.67 508.01 470.88 511.94 467.19
  C 514.89 464.42 515.69 461.05 513.85 457.60
  C 509.18 448.87 497.75 442.76 488.66 440.53
  C 469.52 435.85 450.18 444.84 439.83 461.51
  A 0.79 0.79 0.0 0 1 438.87 461.83
  L 432.58 459.36
  A 0.77 0.62 -24.7 0 0 432.34 459.30
  C 425.26 458.84 421.04 467.56 427.52 471.63
  Q 429.48 472.87 432.06 473.21
  A 1.23 1.23 0.0 0 1 433.06 474.85
  L 430.65 481.47
  A 1.41 1.41 0.0 0 1 428.76 482.28
  Q 425.53 480.87 424.27 480.68
  C 420.73 480.14 417.27 482.85 416.82 486.37
  C 416.04 492.46 422.47 493.80 427.16 495.38
  A 0.75 0.75 0.0 0 1 427.67 496.12
  Q 427.52 499.74 427.63 502.74
  C 428.25 520.21 437.33 534.56 453.03 541.89
  Q 466.90 548.37 483.28 544.88
  C 487.74 543.93 491.49 540.03 490.62 534.99
  C 489.73 529.85 486.97 524.87 481.17 526.25
  C 465.52 529.99 448.65 521.15 448.26 503.67
  A 0.31 0.31 0.0 0 1 448.67 503.37
  Z"
/>
<path fill="#f59813" d="
  M 750.40 353.26
  Q 756.80 350.96 763.15 351.72
  A 5.40 5.32 56.7 0 1 764.17 351.94
  Q 768.06 353.18 773.36 355.39
  Q 794.51 364.21 815.32 372.49
  Q 825.89 376.69 830.09 380.17
  Q 837.45 386.26 840.13 396.00
  Q 841.48 400.92 841.49 400.94
  Q 864.44 474.50 882.15 532.31
  Q 884.32 539.37 885.21 542.40
  Q 887.24 549.33 886.85 552.73
  C 885.83 561.59 880.15 569.75 871.49 572.48
  C 827.75 586.27 788.07 598.84 750.61 609.94
  Q 743.83 611.95 740.33 611.81
  Q 729.45 611.38 722.92 603.36
  Q 720.27 600.10 717.90 591.89
  Q 717.40 590.19 674.54 457.24
  Q 671.47 447.73 671.61 444.01
  C 671.85 437.36 673.27 432.15 676.46 425.58
  Q 694.01 389.42 699.82 378.30
  Q 699.87 378.20 701.10 376.15
  A 0.87 0.87 0.0 0 0 701.13 375.29
  Q 696.99 367.24 695.70 363.56
  C 691.48 351.56 694.74 337.96 705.41 330.47
  C 718.87 321.01 736.01 327.18 743.75 340.27
  Q 747.45 346.52 749.64 352.90
  A 0.59 0.59 0.0 0 0 750.40 353.26
  Z
  M 734.70 381.46
  Q 734.25 381.10 734.05 380.73
  Q 730.34 373.94 725.84 363.13
  Q 724.93 360.93 727.18 360.13
  Q 727.79 359.92 735.90 357.38
  A 0.56 0.55 -19.0 0 0 736.26 356.66
  C 733.77 349.80 730.02 342.30 722.27 340.13
  Q 719.45 339.34 718.40 339.59
  C 709.29 341.73 706.48 350.28 709.67 358.57
  Q 711.66 363.74 713.17 365.97
  A 1.47 1.45 -60.8 0 1 713.42 366.88
  C 713.30 368.85 713.13 371.19 713.69 373.26
  Q 716.54 383.75 725.43 389.76
  A 0.65 0.65 0.0 0 1 725.64 390.59
  Q 724.29 393.29 724.33 396.62
  C 724.55 413.72 745.67 418.38 756.24 407.22
  C 765.19 397.76 762.51 382.58 749.08 379.25
  A 0.38 0.38 0.0 0 0 748.60 379.60
  Q 748.49 382.52 747.01 386.31
  C 745.27 390.75 739.82 393.96 734.97 393.16
  Q 731.58 392.60 728.36 390.89
  A 1.44 1.43 36.4 0 1 728.01 388.61
  L 734.72 381.91
  A 0.31 0.30 -48.0 0 0 734.70 381.46
  Z
  M 792.50 478.52
  Q 793.94 482.50 795.30 488.52
  C 796.47 493.69 801.76 496.19 806.37 493.42
  Q 807.91 492.49 809.88 489.28
  Q 820.39 472.13 825.12 465.10
  C 827.64 461.36 828.51 458.82 826.46 455.04
  Q 825.46 453.20 819.83 450.92
  Q 803.48 444.28 794.13 439.90
  Q 790.57 438.24 788.63 438.55
  C 783.99 439.28 781.42 443.77 782.92 447.90
  Q 784.96 453.52 786.71 458.94
  A 0.90 0.89 73.0 0 1 786.12 460.07
  Q 759.51 468.34 728.13 478.30
  Q 724.53 479.44 723.45 480.57
  C 716.84 487.48 722.68 499.35 732.13 496.43
  Q 762.71 486.95 791.64 478.09
  A 0.70 0.70 0.0 0 1 792.50 478.52
  Z
  M 770.93 522.08
  L 767.60 510.04
  A 0.79 0.74 -69.6 0 0 767.50 509.80
  Q 764.41 505.05 758.79 506.56
  Q 756.77 507.10 755.55 508.81
  Q 752.01 513.75 737.94 535.16
  Q 735.71 538.57 735.64 539.66
  Q 735.48 542.40 736.71 544.78
  Q 737.59 546.47 743.01 548.75
  Q 766.59 558.66 771.21 560.54
  Q 774.34 561.81 776.92 560.39
  Q 782.58 557.28 780.31 550.74
  Q 778.63 545.89 777.16 541.37
  A 1.06 1.06 0.0 0 1 777.85 540.04
  Q 799.48 533.13 832.02 523.17
  C 837.00 521.64 840.28 520.12 841.37 515.13
  Q 842.84 508.37 836.90 504.91
  Q 833.55 502.96 831.21 503.69
  Q 805.39 511.78 771.59 522.44
  A 0.52 0.52 0.0 0 1 770.93 522.08
  Z"
/>
<path fill="#2a3038" d="
  M 541.08 355.46
  Q 541.20 356.06 541.11 356.54
  L 541.08 355.46
  Z"
/>
<path fill="#f59813" d="
  M 492.94 676.13
  L 477.84 693.17
  A 2.95 2.73 -85.8 0 1 477.40 693.58
  C 473.32 696.58 468.39 695.71 465.20 691.89
  Q 464.02 690.48 463.30 686.15
  Q 455.70 640.64 454.67 634.62
  Q 453.35 626.96 454.55 624.47
  Q 456.63 620.16 462.11 619.47
  A 5.07 4.94 45.7 0 1 463.65 619.51
  Q 482.50 622.93 514.93 628.41
  C 517.21 628.79 520.54 628.82 522.39 629.92
  Q 529.27 634.00 525.61 642.02
  A 1.92 1.87 -10.7 0 1 525.19 642.62
  L 510.49 656.95
  A 0.38 0.38 0.0 0 0 510.51 657.51
  C 552.41 693.00 608.00 710.05 662.36 697.98
  Q 695.73 690.57 723.78 671.25
  Q 750.47 652.85 772.14 625.50
  Q 775.54 621.21 777.40 620.05
  Q 781.24 617.65 784.50 617.64
  C 791.81 617.63 795.98 623.27 794.16 630.21
  A 2.43 2.21 -26.4 0 1 793.95 630.75
  Q 771.43 672.15 730.68 698.17
  C 701.15 717.03 668.15 727.74 633.41 728.81
  Q 607.64 729.60 582.78 723.86
  C 549.39 716.15 518.74 699.27 493.46 676.10
  A 0.37 0.36 41.2 0 0 492.94 676.13
  Z"
/>
<rect fill="#dcd1dc" x="110.90" y="888.87" width="1031.98" height="1.58" rx="0.49"/>
<path fill="#2a3038" d="
  M 975.3742 964.4823
  A 82.66 82.55 -86.3 0 1 1052.4179 1052.2971
  A 82.66 82.55 -86.3 0 1 964.7058 1129.4577
  A 82.66 82.55 -86.3 0 1 887.6621 1041.6429
  A 82.66 82.55 -86.3 0 1 975.3742 964.4823
  Z
  M 999.76 1000.27
  Q 997.70 998.48 993.63 996.19
  C 972.97 984.54 948.04 989.80 934.84 1009.80
  C 933.86 1011.29 932.37 1014.25 933.86 1015.26
  A 2.51 2.45 36.6 0 0 937.18 1014.81
  C 948.17 1001.36 962.29 991.92 980.24 996.82
  Q 988.92 999.18 996.07 1004.47
  A 0.89 0.88 41.9 0 1 996.15 1005.83
  C 994.80 1007.08 992.58 1009.06 993.63 1010.58
  Q 994.05 1011.19 995.70 1011.40
  Q 1000.86 1012.09 1006.97 1013.64
  A 1.73 1.72 -48.7 0 0 1008.01 1013.57
  Q 1009.88 1012.82 1009.46 1010.58
  Q 1008.54 1005.66 1006.86 998.43
  Q 1006.34 996.19 1004.20 996.77
  A 1.27 1.16 10.7 0 0 1003.62 997.13
  L 1000.91 1000.19
  A 0.82 0.82 0.0 0 1 999.76 1000.27
  Z
  M 953.93 1023.45
  C 956.74 1019.63 957.68 1014.32 952.42 1012.28
  C 948.40 1010.72 945.54 1013.54 943.88 1016.90
  A 1.09 1.07 -81.7 0 1 943.13 1017.47
  Q 937.35 1018.62 929.61 1021.65
  C 926.82 1022.75 924.35 1022.79 923.09 1026.07
  Q 919.70 1034.93 911.66 1059.70
  A 2.87 2.77 55.3 0 0 911.51 1060.61
  C 911.54 1064.66 914.68 1065.94 917.76 1067.01
  Q 925.19 1069.58 941.94 1075.44
  Q 944.98 1076.50 947.38 1073.78
  A 2.34 2.30 -15.2 0 0 947.84 1072.99
  Q 953.32 1057.48 959.42 1041.18
  Q 960.55 1038.18 959.05 1034.94
  Q 956.57 1029.54 953.86 1024.41
  A 0.91 0.88 49.9 0 1 953.93 1023.45
  Z
  M 987.22 1025.90
  A 0.97 0.95 -48.3 0 1 987.27 1026.90
  Q 985.33 1030.50 981.58 1038.31
  Q 980.31 1040.96 981.16 1043.59
  Q 987.01 1061.67 990.92 1073.89
  C 992.27 1078.09 995.12 1078.62 999.32 1077.31
  Q 1015.88 1072.12 1025.48 1069.30
  A 2.33 2.31 17.4 0 0 1026.31 1068.87
  Q 1028.17 1067.32 1028.06 1064.68
  A 1.57 1.54 -55.7 0 0 1027.99 1064.29
  Q 1020.22 1038.49 1018.43 1031.98
  C 1017.75 1029.54 1016.70 1027.94 1014.54 1026.96
  Q 1011.57 1025.62 1002.30 1021.68
  Q 1000.23 1020.80 998.56 1021.02
  A 0.98 0.98 0.0 0 1 997.49 1020.33
  C 994.19 1009.49 980.77 1016.51 987.22 1025.90
  Z
  M 941.41 1092.54
  C 948.90 1098.83 956.61 1102.84 966.25 1103.73
  Q 985.69 1105.53 1000.36 1091.94
  Q 1004.77 1087.85 1007.24 1082.77
  A 2.39 2.14 23.6 0 0 1005.86 1079.75
  C 1004.63 1079.26 1003.66 1080.25 1002.92 1081.18
  C 988.00 1099.74 964.72 1104.04 945.59 1089.00
  A 1.04 1.03 -48.5 0 1 945.50 1087.45
  L 947.76 1085.19
  A 1.80 1.80 0.0 0 0 946.83 1082.15
  L 934.37 1079.73
  A 0.72 0.71 40.2 0 0 933.98 1079.76
  Q 931.88 1080.62 932.17 1082.53
  Q 933.29 1089.92 934.00 1094.23
  Q 934.22 1095.57 935.00 1096.07
  A 2.15 2.13 -52.3 0 0 937.72 1095.71
  Q 938.90 1094.42 940.42 1092.62
  A 0.70 0.70 0.0 0 1 941.41 1092.54
  Z"
/>
<path fill="#32743c" d="
  M 311.24 981.40
  Q 312.99 979.46 314.32 977.81
  Q 315.38 976.49 316.10 976.24
  A 2.71 2.69 74.7 0 1 319.64 978.28
  Q 322.76 993.95 322.95 994.74
  C 323.53 997.24 323.26 998.32 321.40 999.48
  Q 320.76 999.87 319.29 999.49
  Q 311.47 997.46 304.26 996.50
  C 297.19 995.55 303.25 990.11 305.22 988.38
  A 0.66 0.66 0.0 0 0 305.18 987.35
  C 290.29 976.20 270.57 971.20 252.89 978.48
  C 241.56 983.15 233.14 991.29 225.42 1000.91
  C 222.68 1004.32 217.93 1001.44 220.07 997.61
  C 231.96 976.31 256.03 963.46 280.49 968.09
  Q 295.33 970.90 305.84 978.44
  Q 310.22 981.58 310.28 981.60
  A 0.84 0.83 -56.5 0 0 311.24 981.40
  Z"
/>
<path fill="#2a3038" d="
  M 665.00 983.71
  A 0.82 0.81 -56.7 0 0 665.94 983.51
  Q 667.64 981.61 668.93 980.00
  Q 669.96 978.70 670.67 978.46
  A 2.65 2.62 74.5 0 1 674.13 980.44
  Q 677.23 995.73 677.42 996.50
  C 678.00 998.94 677.74 999.99 675.93 1001.13
  Q 675.30 1001.51 673.87 1001.15
  Q 666.22 999.19 659.18 998.28
  C 652.27 997.38 658.17 992.05 660.09 990.35
  A 0.65 0.65 0.0 0 0 660.04 989.34
  C 645.46 978.51 626.19 973.70 608.95 980.87
  C 597.90 985.47 589.71 993.45 582.20 1002.87
  C 579.54 1006.21 574.89 1003.41 576.97 999.67
  C 588.50 978.82 611.96 966.19 635.86 970.62
  Q 650.37 973.32 660.66 980.64
  Q 664.94 983.69 665.00 983.71
  Z"
/>
<path fill="#32743c" d="
  M 254.85 1030.97
  L 255.07 1036.26
  L 253.34 1041.22
  Q 252.99 1041.10 253.03 1041.98
  Q 246.46 1059.72 240.03 1077.52
  Q 238.35 1082.18 236.90 1083.21
  C 234.15 1085.17 231.91 1085.01 228.47 1083.73
  Q 213.12 1078.03 197.56 1072.38
  Q 192.44 1070.53 191.54 1069.26
  C 189.43 1066.29 189.58 1064.11 190.86 1060.41
  Q 195.29 1047.63 206.63 1015.92
  Q 207.13 1014.51 209.57 1012.93
  A 4.25 4.21 18.7 0 1 210.35 1012.55
  Q 218.80 1009.60 226.95 1006.45
  Q 229.71 1005.38 232.30 1005.44
  A 1.79 1.77 -77.9 0 0 233.98 1004.34
  Q 236.32 998.64 240.95 997.73
  Q 246.32 996.68 249.24 1001.08
  C 252.14 1005.47 250.03 1010.08 247.61 1013.94
  A 1.20 1.19 -41.1 0 0 247.53 1015.08
  L 254.85 1030.97
  Z
  M 238.08 1016.76
  L 237.73 1017.79
  Q 234.52 1018.25 233.59 1015.71
  A 1.59 1.59 0.0 0 0 230.90 1015.19
  L 229.93 1016.29
  A 3.82 3.81 54.0 0 0 229.29 1020.34
  Q 231.31 1024.96 235.47 1024.67
  Q 236.03 1024.72 236.46 1024.52
  Q 240.54 1023.09 240.33 1018.76
  A 0.99 0.99 0.0 0 1 240.67 1017.95
  C 243.30 1015.60 244.55 1011.07 245.65 1007.96
  Q 246.96 1004.29 243.93 1002.39
  C 241.35 1000.77 238.14 1004.52 237.81 1006.58
  A 0.77 0.76 -76.0 0 0 238.30 1007.41
  L 239.85 1007.97
  A 1.40 1.39 -67.4 0 1 240.63 1009.88
  Q 239.79 1011.63 238.10 1014.60
  C 237.68 1015.34 237.74 1016.03 238.08 1016.76
  Z
  M 214.23 1042.06
  L 212.55 1042.27
  C 209.65 1041.39 208.35 1044.95 210.96 1045.89
  Q 211.34 1046.74 211.37 1047.20
  L 211.20 1047.81
  A 0.82 0.81 -81.4 0 1 210.39 1048.41
  L 208.73 1048.36
  A 1.13 1.13 0.0 0 0 208.07 1048.55
  Q 206.81 1049.40 207.49 1051.18
  A 1.02 0.99 0.3 0 0 208.09 1051.77
  L 209.30 1052.21
  A 0.91 0.90 -82.1 0 1 209.89 1053.00
  Q 210.28 1059.02 211.29 1060.81
  Q 215.61 1068.52 225.00 1068.16
  Q 227.25 1068.08 228.96 1066.33
  A 0.89 0.89 0.0 0 0 229.14 1065.35
  L 228.05 1062.76
  A 1.54 1.54 0.0 0 0 226.23 1061.88
  Q 219.46 1063.68 216.83 1058.91
  Q 215.91 1057.24 216.06 1055.68
  A 0.60 0.60 0.0 0 1 216.87 1055.17
  L 222.20 1057.15
  A 1.77 1.76 -68.0 0 0 224.43 1056.20
  L 224.54 1055.97
  A 1.69 1.69 0.0 0 0 223.58 1053.65
  L 217.69 1051.50
  A 1.21 1.21 0.0 0 1 216.96 1049.94
  L 217.25 1049.15
  A 1.12 1.11 -70.2 0 1 218.67 1048.48
  L 225.21 1050.79
  A 1.69 1.69 0.0 0 0 227.41 1049.63
  L 227.48 1049.40
  A 1.94 1.93 -72.2 0 0 226.26 1047.01
  L 220.66 1045.11
  A 0.62 0.62 0.0 0 1 220.44 1044.07
  Q 223.61 1041.14 227.42 1042.20
  C 229.11 1042.67 230.22 1043.99 231.95 1045.55
  A 1.50 1.50 0.0 0 0 233.73 1045.71
  Q 235.08 1044.88 235.91 1043.80
  A 1.96 1.95 -43.9 0 0 235.96 1041.47
  C 230.52 1033.81 219.75 1034.38 214.23 1042.06
  Z"
/>
<path fill="#2a3038" d="
  M 603.87 1016.09
  Q 608.35 1025.05 610.98 1031.21
  Q 612.18 1034.03 611.08 1037.11
  Q 609.62 1041.16 596.07 1079.32
  Q 594.09 1084.92 588.06 1084.44
  A 3.59 3.41 -31.2 0 1 587.19 1084.25
  Q 555.70 1072.80 551.84 1071.17
  C 546.27 1068.82 547.06 1064.24 548.84 1059.12
  Q 560.31 1026.27 563.28 1017.54
  C 563.91 1015.66 566.20 1014.04 568.32 1013.39
  Q 568.73 1013.26 583.27 1007.78
  C 584.74 1007.22 587.05 1006.40 588.54 1006.62
  Q 589.26 1006.73 589.55 1006.59
  A 1.60 1.55 -86.9 0 0 590.25 1005.94
  Q 592.28 1002.37 592.96 1001.68
  C 599.05 995.51 608.68 1000.79 606.61 1009.15
  Q 605.99 1011.62 603.96 1014.70
  A 1.39 1.38 -41.4 0 0 603.87 1016.09
  Z
  M 586.65 1017.11
  A 4.05 4.04 49.7 0 0 586.26 1021.95
  Q 588.94 1026.19 592.71 1025.22
  Q 596.97 1024.13 596.78 1019.85
  A 1.42 1.39 64.2 0 1 597.10 1018.90
  Q 599.72 1015.72 600.12 1014.31
  Q 600.85 1011.75 602.17 1008.71
  A 2.78 2.73 -32.6 0 0 602.40 1007.71
  Q 602.59 1003.51 598.67 1003.46
  A 2.59 2.59 0.0 0 0 596.69 1004.33
  L 594.56 1006.74
  A 1.30 1.30 0.0 0 0 595.25 1008.87
  Q 596.62 1009.18 597.14 1009.92
  Q 597.59 1010.56 596.77 1011.93
  Q 595.19 1014.59 594.74 1015.47
  A 1.66 1.66 0.0 0 0 594.58 1016.44
  Q 594.67 1017.08 595.08 1017.72
  A 0.70 0.69 65.9 0 1 594.68 1018.77
  Q 591.21 1019.69 590.14 1016.53
  A 1.49 1.49 0.0 0 0 587.61 1016.02
  L 586.65 1017.11
  Z
  M 576.87 1044.72
  C 580.78 1040.42 584.66 1041.93 588.06 1045.67
  A 1.86 1.85 48.9 0 0 590.62 1045.85
  L 592.12 1044.60
  A 2.12 2.12 0.0 0 0 592.39 1041.62
  C 586.34 1034.32 576.69 1034.91 571.19 1042.42
  A 1.23 1.19 12.7 0 1 570.40 1042.90
  Q 569.78 1042.98 569.27 1042.66
  Q 568.38 1042.10 567.71 1042.61
  Q 566.72 1043.38 566.64 1044.66
  A 0.82 0.82 0.0 0 0 567.17 1045.47
  L 567.78 1045.68
  A 1.58 1.58 0.0 0 1 566.87 1048.70
  L 565.71 1048.42
  A 0.92 0.91 27.8 0 0 564.83 1048.69
  Q 563.64 1049.97 564.35 1051.34
  A 1.22 1.19 -7.2 0 0 565.18 1051.97
  C 568.08 1052.59 566.83 1054.48 567.14 1056.27
  Q 569.27 1068.37 582.18 1067.98
  Q 583.06 1067.96 584.59 1067.09
  C 586.58 1065.97 585.38 1063.68 584.34 1062.42
  A 1.02 1.01 66.8 0 0 583.45 1062.06
  C 582.02 1062.21 580.66 1062.60 579.40 1062.44
  Q 573.87 1061.74 572.82 1056.23
  A 0.94 0.93 63.8 0 1 573.11 1055.36
  Q 573.48 1055.04 578.64 1057.21
  A 2.09 2.09 0.0 0 0 581.27 1056.31
  L 581.39 1056.12
  A 1.60 1.59 26.4 0 0 580.60 1053.78
  L 574.66 1051.55
  A 1.29 1.28 19.9 0 1 573.89 1049.92
  L 573.93 1049.78
  A 1.38 1.38 0.0 0 1 575.72 1048.87
  L 581.65 1051.00
  A 1.86 1.85 -64.4 0 0 583.86 1050.22
  L 584.10 1049.88
  A 1.50 1.50 0.0 0 0 583.38 1047.62
  L 577.02 1045.30
  A 0.36 0.36 0.0 0 1 576.87 1044.72
  Z"
/>
<path fill="#f59813" d="
  M 292.99 1017.63
  A 1.30 1.30 0.0 0 0 292.96 1016.33
  Q 290.93 1012.95 290.74 1010.55
  C 290.39 1006.16 293.30 1002.23 297.54 1001.57
  C 302.75 1000.75 306.00 1004.66 307.39 1009.04
  A 0.77 0.77 0.0 0 0 308.28 1009.56
  C 310.14 1009.16 311.38 1009.19 313.12 1009.92
  Q 328.45 1016.34 329.31 1016.65
  C 332.51 1017.83 334.00 1020.20 335.06 1023.64
  Q 342.10 1046.50 348.73 1068.88
  A 2.43 2.34 36.8 0 1 348.83 1069.49
  Q 349.03 1075.31 343.92 1076.91
  Q 329.32 1081.45 310.09 1087.61
  C 304.92 1089.26 302.02 1089.41 299.09 1085.22
  A 2.56 2.45 19.3 0 1 298.74 1084.53
  Q 291.18 1061.67 284.25 1040.25
  Q 283.24 1037.12 285.45 1032.44
  Q 289.10 1024.73 292.99 1017.63
  Z
  M 307.53 1019.02
  C 306.49 1020.31 305.50 1021.75 303.62 1020.75
  A 1.13 1.12 2.4 0 1 303.08 1020.17
  L 300.20 1013.38
  A 1.18 1.18 0.0 0 1 301.08 1011.76
  Q 302.26 1011.54 303.14 1010.95
  A 0.75 0.74 -30.2 0 0 303.40 1009.99
  C 302.05 1007.29 299.47 1003.96 296.47 1007.05
  C 294.14 1009.46 296.44 1012.38 296.88 1015.01
  Q 297.48 1018.66 299.49 1020.68
  A 2.00 1.99 -64.4 0 1 300.05 1022.29
  C 299.41 1028.44 306.97 1030.84 310.54 1025.94
  Q 313.28 1022.18 309.23 1018.84
  A 1.20 1.19 -51.0 0 0 307.53 1019.02
  Z
  M 298.52 1051.97
  C 299.15 1054.01 301.09 1054.08 302.87 1053.51
  Q 308.93 1051.55 319.84 1048.35
  A 0.64 0.63 80.3 0 1 320.65 1048.93
  C 320.73 1050.73 321.38 1053.38 323.42 1053.39
  Q 324.33 1053.39 325.26 1052.08
  Q 328.49 1047.50 331.03 1043.29
  Q 331.46 1042.57 331.24 1041.86
  Q 331.04 1041.20 330.28 1040.85
  Q 325.81 1038.80 320.56 1036.83
  Q 319.06 1036.27 318.30 1036.78
  C 316.62 1037.94 317.58 1040.49 318.52 1042.03
  A 0.64 0.63 65.4 0 1 318.18 1042.96
  Q 307.36 1046.45 301.25 1048.24
  C 299.46 1048.77 297.89 1049.92 298.52 1051.97
  Z
  M 335.48 1057.85
  C 334.87 1055.84 332.96 1055.77 331.22 1056.34
  Q 325.28 1058.25 314.58 1061.38
  A 0.62 0.62 0.0 0 1 313.79 1060.81
  C 313.71 1059.05 313.07 1056.45 311.07 1056.44
  Q 310.18 1056.44 309.27 1057.72
  Q 306.10 1062.21 303.61 1066.34
  Q 303.18 1067.05 303.40 1067.74
  Q 303.59 1068.38 304.34 1068.73
  Q 308.72 1070.74 313.87 1072.68
  Q 315.34 1073.23 316.08 1072.72
  C 317.73 1071.59 316.79 1069.09 315.87 1067.58
  A 0.62 0.62 0.0 0 1 316.20 1066.67
  Q 326.81 1063.25 332.80 1061.49
  C 334.56 1060.98 336.10 1059.85 335.48 1057.85
  Z"
/>
<path fill="#2a3038" d="
  M 648.20 1018.65
  A 1.27 1.27 0.0 0 0 648.17 1017.38
  Q 646.19 1014.07 646.01 1011.72
  C 645.68 1007.43 648.54 1003.59 652.68 1002.95
  C 657.78 1002.16 660.95 1005.99 662.30 1010.28
  A 0.75 0.75 0.0 0 0 663.17 1010.79
  C 664.99 1010.40 666.20 1010.44 667.90 1011.15
  Q 682.88 1017.46 683.72 1017.77
  C 686.84 1018.93 688.29 1021.25 689.32 1024.62
  Q 696.16 1046.99 702.59 1068.88
  A 2.38 2.29 36.9 0 1 702.69 1069.48
  Q 702.87 1075.17 697.87 1076.72
  Q 683.58 1081.13 664.77 1087.11
  C 659.71 1088.72 656.87 1088.86 654.02 1084.75
  A 2.50 2.40 19.5 0 1 653.67 1084.08
  Q 646.33 1061.71 639.60 1040.75
  Q 638.62 1037.68 640.79 1033.11
  Q 644.38 1025.58 648.20 1018.65
  Z
  M 662.30 1019.80
  C 661.28 1021.07 660.31 1022.48 658.46 1021.50
  A 1.11 1.10 2.3 0 1 657.93 1020.93
  L 655.10 1014.27
  A 1.16 1.15 -16.6 0 1 655.96 1012.68
  Q 657.12 1012.46 657.98 1011.88
  A 0.74 0.73 -30.3 0 0 658.24 1010.94
  C 656.91 1008.29 654.38 1005.02 651.43 1008.05
  C 649.15 1010.42 651.41 1013.29 651.84 1015.87
  Q 652.43 1019.45 654.41 1021.44
  A 1.96 1.95 -64.4 0 1 654.96 1023.02
  C 654.33 1029.06 661.76 1031.41 665.26 1026.59
  Q 667.95 1022.90 663.97 1019.62
  A 1.17 1.17 0.0 0 0 662.30 1019.80
  Z
  M 653.49 1052.08
  C 654.11 1054.09 656.01 1054.15 657.76 1053.59
  Q 663.70 1051.66 674.41 1048.50
  A 0.62 0.62 0.0 0 1 675.20 1049.07
  C 675.28 1050.83 675.93 1053.43 677.93 1053.44
  Q 678.82 1053.44 679.73 1052.15
  Q 682.90 1047.65 685.38 1043.51
  Q 685.81 1042.81 685.59 1042.11
  Q 685.39 1041.47 684.64 1041.12
  Q 680.25 1039.11 675.10 1037.19
  Q 673.62 1036.64 672.88 1037.15
  C 671.23 1038.28 672.17 1040.79 673.11 1042.29
  A 0.62 0.62 0.0 0 1 672.77 1043.21
  Q 662.16 1046.66 656.16 1048.42
  C 654.40 1048.94 652.86 1050.07 653.49 1052.08
  Z
  M 689.80 1057.91
  C 689.19 1055.93 687.31 1055.87 685.59 1056.44
  Q 679.75 1058.34 669.21 1061.47
  A 0.61 0.61 0.0 0 1 668.43 1060.91
  C 668.35 1059.17 667.71 1056.62 665.74 1056.61
  Q 664.86 1056.61 663.97 1057.88
  Q 660.86 1062.32 658.42 1066.40
  Q 658.00 1067.10 658.20 1067.73
  Q 658.41 1068.41 659.15 1068.75
  Q 663.48 1070.72 668.55 1072.61
  Q 670.01 1073.14 670.73 1072.64
  C 672.35 1071.52 671.43 1069.06 670.51 1067.58
  A 0.61 0.61 0.0 0 1 670.83 1066.67
  Q 681.28 1063.26 687.17 1061.51
  C 688.91 1061.00 690.42 1059.88 689.80 1057.91
  Z"
/>
<path fill="#2a3038" d="
  M 948.94 1021.10
  A 0.85 0.84 24.3 0 0 948.47 1019.87
  Q 947.81 1019.65 946.98 1018.98
  Q 946.35 1018.46 946.98 1017.54
  Q 948.03 1016.00 949.46 1015.01
  A 1.11 1.11 0.0 0 1 950.64 1014.95
  C 953.16 1016.32 953.21 1018.02 951.90 1020.74
  C 950.87 1022.87 951.02 1024.14 948.56 1026.36
  A 0.91 0.91 0.0 0 0 948.30 1027.26
  L 948.62 1028.42
  A 0.98 0.94 54.3 0 1 948.51 1029.18
  Q 946.15 1032.81 942.95 1031.29
  Q 938.93 1029.39 941.25 1025.37
  A 1.52 1.51 39.4 0 1 943.69 1025.14
  Q 944.13 1025.64 945.32 1026.11
  A 0.73 0.73 0.0 0 0 946.23 1025.80
  L 948.94 1021.10
  Z"
/>
<path fill="#2a3038" d="
  M 237.73 1017.79
  L 238.08 1016.76
  Q 238.42 1017.08 238.48 1017.38
  Q 238.53 1017.65 238.26 1017.77
  Q 238.01 1017.87 237.73 1017.79
  Z"
/>
<path fill="#2a3038" d="
  M 994.20 1022.21
  Q 993.17 1022.48 992.57 1022.99
  A 0.81 0.81 0.0 0 0 992.35 1023.93
  L 994.36 1028.69
  A 1.22 1.21 -31.5 0 0 996.26 1029.14
  L 997.46 1028.14
  A 1.60 1.60 0.0 0 1 999.72 1028.35
  C 1003.21 1032.58 995.75 1037.61 992.11 1032.22
  A 1.26 1.21 28.6 0 1 991.89 1031.52
  L 991.90 1030.25
  A 2.48 2.44 -59.0 0 0 991.61 1029.05
  Q 989.99 1026.01 988.82 1022.24
  C 987.37 1017.53 993.65 1017.04 994.66 1021.46
  A 0.63 0.63 0.0 0 1 994.20 1022.21
  Z"
/>
<path fill="#2a3038" d="
  M 236.46 1024.52
  Q 236.03 1024.72 235.47 1024.67
  L 236.46 1024.52
  Z"
/>
<path fill="#2a3038" d="
  M 255.07 1036.26
  L 254.85 1030.97
  Q 255.65 1033.69 255.07 1036.26
  Z"
/>
<path fill="#2a3038" d="
  M 944.10 1046.91
  A 1.09 1.09 0.0 0 1 942.46 1046.89
  C 939.96 1043.93 936.26 1042.88 933.40 1046.05
  A 0.58 0.58 0.0 0 0 933.63 1046.98
  L 937.85 1048.51
  A 1.14 1.14 0.0 0 1 938.50 1050.06
  L 938.33 1050.44
  A 0.98 0.98 0.0 0 1 937.10 1050.95
  L 932.58 1049.31
  A 0.94 0.92 22.6 0 0 931.42 1049.78
  L 931.22 1050.20
  A 0.82 0.82 0.0 0 0 931.68 1051.33
  L 935.91 1052.87
  A 1.31 1.30 -67.8 0 1 936.65 1054.64
  L 936.53 1054.91
  A 1.22 1.22 0.0 0 1 935.01 1055.54
  L 931.51 1054.27
  A 0.84 0.84 0.0 0 0 930.44 1055.34
  Q 932.24 1060.34 937.96 1059.23
  A 1.75 1.75 0.0 0 1 940.02 1061.24
  L 939.92 1061.83
  A 1.98 1.98 0.0 0 1 938.09 1063.48
  Q 926.67 1064.24 925.89 1053.13
  Q 925.80 1051.88 924.78 1051.63
  A 1.10 1.02 -43.5 0 1 924.91 1049.57
  Q 925.80 1049.35 926.82 1049.17
  A 0.75 0.75 0.0 0 0 927.19 1047.87
  L 925.79 1046.62
  A 0.58 0.58 0.0 0 1 925.67 1045.88
  Q 926.34 1044.73 927.23 1044.67
  Q 927.65 1044.64 928.21 1044.96
  Q 928.57 1045.15 928.89 1045.08
  Q 929.11 1045.04 929.38 1044.66
  C 933.44 1038.88 940.71 1038.53 945.26 1043.77
  A 1.39 1.38 45.3 0 1 945.25 1045.60
  L 944.10 1046.91
  Z"
/>
<path fill="#2a3038" d="
  M 1014.92 1044.70
  Q 1015.06 1045.15 1014.44 1046.22
  Q 1012.64 1049.32 1010.56 1052.47
  A 1.52 1.52 0.0 0 1 1007.83 1052.04
  L 1007.26 1049.95
  A 0.58 0.58 0.0 0 0 1006.53 1049.55
  Q 995.31 1052.98 994.37 1053.31
  C 993.05 1053.78 991.72 1053.55 991.27 1052.12
  C 990.82 1050.66 991.78 1049.71 993.14 1049.35
  Q 994.09 1049.08 1005.27 1045.52
  A 0.58 0.58 0.0 0 0 1005.64 1044.77
  L 1004.92 1042.73
  A 1.52 1.52 0.0 0 1 1006.92 1040.82
  Q 1010.42 1042.23 1013.66 1043.75
  Q 1014.79 1044.28 1014.92 1044.70
  Z"
/>
<path fill="#2a3038" d="
  M 253.34 1041.22
  Q 253.34 1041.62 253.03 1041.98
  Q 252.99 1041.10 253.34 1041.22
  Z"
/>
<path fill="#2a3038" d="
  M 214.23 1042.06
  Q 214.05 1042.29 213.77 1042.44
  Q 213.51 1042.59 213.20 1042.53
  Q 212.86 1042.46 212.55 1042.27
  L 214.23 1042.06
  Z"
/>
<path fill="#2a3038" d="
  M 211.37 1047.20
  Q 211.34 1046.74 210.96 1045.89
  Q 211.68 1046.00 211.37 1047.20
  Z"
/>
<path fill="#2a3038" d="
  M 1018.45 1056.50
  C 1018.85 1057.94 1017.87 1058.85 1016.53 1059.16
  Q 1015.58 1059.39 1004.49 1062.54
  A 0.57 0.57 0.0 0 0 1004.10 1063.26
  L 1004.74 1065.29
  A 1.49 1.49 0.0 0 1 1002.72 1067.11
  Q 999.32 1065.61 996.18 1064.01
  Q 995.10 1063.46 994.98 1063.05
  Q 994.86 1062.60 995.50 1061.56
  Q 997.37 1058.57 999.51 1055.54
  A 1.49 1.49 0.0 0 1 1002.18 1056.05
  L 1002.67 1058.12
  A 0.57 0.57 0.0 0 0 1003.38 1058.54
  Q 1014.51 1055.52 1015.44 1055.23
  C 1016.75 1054.81 1018.06 1055.08 1018.45 1056.50
  Z"
/>
<path fill="#2a3038" d="
  M 586.83 1107.74
  A 0.76 0.76 0.0 0 0 585.79 1107.76
  C 584.09 1109.47 580.70 1115.55 577.93 1111.86
  A 1.76 1.65 -70.9 0 1 577.60 1111.10
  Q 576.10 1103.08 575.12 1096.10
  C 574.78 1093.72 573.97 1091.30 576.87 1090.34
  A 1.34 1.24 -47.1 0 1 577.52 1090.29
  L 594.73 1093.23
  A 0.71 0.70 -21.0 0 1 595.06 1093.38
  Q 597.67 1095.36 595.54 1097.57
  Q 593.43 1099.77 591.94 1101.33
  A 0.53 0.52 42.6 0 0 591.97 1102.10
  Q 597.97 1107.34 605.65 1110.69
  C 630.40 1121.51 653.97 1112.15 669.70 1091.27
  A 2.96 2.95 38.0 0 1 673.93 1090.75
  L 673.98 1090.79
  A 3.42 3.42 0.0 0 1 674.75 1095.22
  Q 664.50 1112.17 647.28 1119.06
  C 626.27 1127.47 603.76 1122.81 586.83 1107.74
  Z"
/>
<path fill="#f59813" d="
  M 228.87 1109.16
  C 227.12 1110.92 223.64 1117.18 220.79 1113.39
  A 1.81 1.70 -71.0 0 1 220.44 1112.61
  Q 218.89 1104.36 217.86 1097.18
  C 217.51 1094.73 216.67 1092.24 219.66 1091.25
  A 1.38 1.28 -47.2 0 1 220.32 1091.20
  L 238.04 1094.19
  A 0.73 0.72 -21.1 0 1 238.38 1094.34
  Q 241.07 1096.37 238.88 1098.65
  Q 236.71 1100.92 235.18 1102.53
  A 0.55 0.54 42.5 0 0 235.22 1103.32
  Q 241.40 1108.70 249.31 1112.14
  C 274.80 1123.22 299.04 1113.55 315.19 1092.03
  A 3.04 3.04 0.0 0 1 319.54 1091.49
  L 319.59 1091.53
  A 3.52 3.52 0.0 0 1 320.39 1096.09
  Q 309.87 1113.55 292.17 1120.67
  C 270.56 1129.37 247.39 1124.61 229.94 1109.13
  A 0.78 0.78 0.0 0 0 228.87 1109.16
  Z"
/>
</svg>
